<svg xmlns="http://www.w3.org/2000/svg" xmlns:ns1="http://www.w3.org/1999/xlink" fill="none" viewBox="0 0 1200 800" width="1200" height="800"><defs><clipPath id="assetClipPath_lLbE1R1v"><path d="m0 0 h 615.344 a 0,0 0 0 1 0,0 v 615.327 a 0,0 0 0 1 -0,0 h -615.344 a 0,0 0 0 1 -0,-0 v -615.327 a 0,0 0 0 1 0,-0 z" id="path_5iem45GM" fill="#ffffff" /></clipPath></defs><g transform="translate(320 120) rotate(0 280 280) scale(1 1)" opacity="1" data-asset-index="0"><g clip-path="url(#assetClipPath_lLbE1R1v)" transform="scale(0.9100600639642216 0.9100600639642216)" data-asset-index="0"><defs data-selector="defs[1]" /><linearGradient id="linearGradient_F2D-9a5D" data-selector="lineargradient[2]"><stop offset=".316" stop-color="rgba(64,255,255,1)" data-selector="lineargradient[2]&gt;stop[1]" /><stop offset=".631" stop-color="rgba(0,239,248,1)" data-selector="lineargradient[2]&gt;stop[2]" /><stop offset=".711" stop-color="rgba(0,233,242,1)" data-selector="lineargradient[2]&gt;stop[3]" /></linearGradient><radialGradient id="b" cx="502.058" cy="17.374" fx="502.058" fy="17.374" gradientUnits="userSpaceOnUse" r="45.152" ns1:href="#linearGradient_F2D-9a5D" data-selector="radialgradient[3]" /><radialGradient id="c" cx="403.086" cy="211.935" fx="403.086" fy="211.935" gradientTransform="matrix(.89400571 .44805558 -.96600782 1.9274763 247.437 -377.13)" r="63.069" ns1:href="#b" data-selector="radialgradient[4]" /><radialGradient id="d" cx="287.633" cy="284.846" fx="287.633" fy="284.846" r="360.334" ns1:href="#b" data-selector="radialgradient[5]" /><linearGradient id="linearGradient_J_Rs4iKq" gradientUnits="userSpaceOnUse" x1="114.784" x2="36.187" ns1:href="#linearGradient_F2D-9a5D" y1="197.698" y2="328.054" data-selector="lineargradient[6]" /><clipPath id="clipPath_zOu8isBh" data-selector="clippath[7]"><path d="m446.941 309.772c37.78 16.036 75.217 34.998 112.688 56.385 32.07 18.3 45.07 56.552 23.818 93.688l-29.318 51.231c-21.256 37.144-61.677 43.955-100.78 40.799-44.742-3.61-84.505-13.05-120.381-28.278-36.717-15.585-69.364-37.23-99.154-64.909-26.712-24.809-45.081-56.547-23.825-93.691l29.318-51.231c21.252-37.136 63.91-50.447 100.787-40.796 36.087 9.438 71.616 21.848 106.847 36.802z" data-selector="clippath[7]&gt;path[1]" /></clipPath><linearGradient id="linearGradient_5zioHSkz" gradientUnits="userSpaceOnUse" x1="182.582" x2="575.716" y1="391.709" y2="391.709" data-selector="lineargradient[8]"><stop offset=".055" stop-color="rgba(0,190,200,1)" data-selector="lineargradient[8]&gt;stop[1]" /><stop offset=".35" stop-color="rgba(0,193,202,1)" data-selector="lineargradient[8]&gt;stop[2]" /><stop offset=".828" stop-color="rgba(0,201,211,1)" data-selector="lineargradient[8]&gt;stop[3]" /><stop offset=".9" stop-color="rgba(115,181,255,1)" data-selector="lineargradient[8]&gt;stop[4]" /></linearGradient><linearGradient id="linearGradient_kv7dkUAk" gradientUnits="userSpaceOnUse" x1="306.222" x2="352.283" y1="354.287" y2="354.287" data-selector="lineargradient[9]"><stop offset=".138" stop-color="rgba(17,247,255,0)" data-selector="lineargradient[9]&gt;stop[1]" /><stop offset=".208" stop-color="rgba(17,247,255,0.12)" data-selector="lineargradient[9]&gt;stop[2]" /><stop offset=".41" stop-color="rgba(17,247,255,0.43)" data-selector="lineargradient[9]&gt;stop[3]" /><stop offset=".59" stop-color="rgba(17,247,255,0.67)" data-selector="lineargradient[9]&gt;stop[4]" /><stop offset=".741" stop-color="rgba(17,247,255,0.85)" data-selector="lineargradient[9]&gt;stop[5]" /><stop offset=".857" stop-color="rgba(17,247,255,0.96)" data-selector="lineargradient[9]&gt;stop[6]" /><stop offset=".924" stop-color="rgba(17,247,255,1)" data-selector="lineargradient[9]&gt;stop[7]" /></linearGradient><linearGradient id="linearGradient_b_PXayBe" x1="471.253" x2="517.315" ns1:href="#linearGradient_kv7dkUAk" y1="424.339" y2="424.339" data-selector="lineargradient[10]" /><path d="m379.889 98h179.922v20.001h-179.922z" fill="rgba(0,233,242,1)" transform="matrix(.41130756 -.91149662 .91149662 .41130756 178.153 491.844)" id="NajF3lN_Zi0mkDLCQYOb8" data-selector="path[11]" /><circle cx="506.85" cy="26" fill="url(#b)" r="26" id="S8YStZR0R_nJyLekrOYp" data-selector="circle[12]" /><path d="m511.606 194.321c-.404-4.879-1.151-9.631-2.673-14.292-1.71-5.234-4.176-10.208-7.084-14.876-5.509-8.841-12.875-16.624-21.049-23.049-16.123-12.674-35.576-20.793-55.926-23.308-10.671-1.319-21.878-.774-32.24 2.199-5.221 1.498-10.439 3.66-15.034 6.571-4.32 2.737-8.726 6.198-11.675 10.432-1.756 2.519-3.353 5.168-4.8 7.876 1.566-3.387 7.404-3.075 10.387-2.936 3.511.165 7.003.708 10.448 1.386 8.62 1.697 17.067 4.282 25.362 7.15 20.479 7.081 40.391 16.11 59.319 26.648 9.734 5.419 19.347 11.246 28.14 18.112 3.104 2.424 6.137 4.991 8.805 7.895 1.675 1.823 3.393 3.877 4.223 6.248.377 1.077.545 2.303.051 3.372 2.699-5.914 4.289-12.898 3.745-19.429-.234-2.831.13 1.561 0 0z" fill="url(#c)" id="hEqCWSY5zpzbisZu96x9M" data-selector="path[13]" /><ellipse cx="434.494" cy="179.813" fill="rgba(0,233,242,1)" rx="16.053" ry="80.82" transform="matrix(.41967388 -.90767496 .90767496 .41967388 88.936 498.729)" id="zY8C3yb7Tq-soYF2irrjg" data-selector="ellipse[14]" /><path d="m521.81 570.449-78.368-36.262c-1.356-.628-2.691-1.334-4-2.12l78.368 36.262c1.309.786 2.644 1.493 4 2.12z" fill="rgba(115,181,255,1)" id="W88nIosaUkWDbxf6i9Czj" data-selector="path[15]" /><path d="m517.81 568.329-78.368-36.262-4.21-2.529 78.368 36.261z" fill="rgba(115,181,255,1)" id="eNsxag4v6TjFAEGrMVluI" data-selector="path[16]" /><path d="m513.6 565.799-78.368-36.261 73.889-130.362 78.368 36.262z" fill="rgba(115,181,255,1)" id="dAVQHbfswRYe6RMtJwvEL" data-selector="path[17]" /><path d="m591.699 437.967c22.516 13.529 28.775 45.652 13.981 71.753l-20.318 35.846c-14.794 26.1-45.037 36.291-67.553 22.763l-4.21-2.529 73.889-130.362 4.21 2.529z" fill="rgba(115,181,255,1)" id="OsVVhmFtMSeGnnzGVGHf2" data-selector="path[18]" /><path d="m604.427 381.574c-15.555-239.514-381.565-354.078-528.721-163.547-72.148 93.415-43.04 220.304 35.572 299.076 112.399 112.628 337.183 144.671 446.14 8.877 33.782-39.81 50.354-92.458 47.009-144.406-.011-.165.366 5.687 0 0z" fill="url(#d)" id="Qrf1YaH5Ryk8hHPK4yG7b" data-selector="path[19]" /><g fill="none" id="mxLsCl9Qhe35suOo5lcXd" data-selector="g[20]"><path d="m450.312 295.233c37.78 16.036 75.217 34.998 112.688 56.385 32.07 18.3 45.07 56.552 23.818 93.688l-29.318 51.231c-21.256 37.144-61.677 43.955-100.78 40.799-44.742-3.61-84.505-13.05-120.381-28.278-36.717-15.585-69.364-37.23-99.154-64.909-26.712-24.809-45.081-56.547-23.825-93.691l29.318-51.231c21.252-37.136 63.91-50.447 100.787-40.796 36.087 9.438 71.616 21.848 106.847 36.802z" fill="rgba(0,27,30,1)" id="d8hPAlbCZXos-a5mhgNK" data-selector="g[20]&gt;path[1]" /><path d="m468.44 314.772c37.78 16.036 75.217 34.998 112.688 56.385 32.07 18.3 45.07 56.552 23.818 93.688l-29.318 51.231c-21.256 37.144-61.677 43.955-100.78 40.799-44.742-3.61-84.505-13.05-120.381-28.278-36.717-15.585-69.364-37.23-99.154-64.909-26.712-24.809-45.081-56.547-23.825-93.691l29.318-51.231c21.252-37.136 63.91-50.447 100.787-40.796 36.087 9.438 71.616 21.848 106.847 36.802z" fill="rgba(0,27,30,1)" id="b-BSatNQbI0wA5b8jC_Dc" data-selector="g[20]&gt;path[2]" /><path d="m598.187 384.606c18.88 20.349 23.694 50.648 6.76 80.239l-18.129-19.539c16.934-29.591 12.12-59.89-6.76-80.239 5.439 5.862 12.69 13.677 18.129 19.539z" fill="rgba(0,27,30,1)" id="cP2ZtRwJ0N1HGwFFnucDT" data-selector="g[20]&gt;path[3]" /><path d="m604.947 464.846-29.318 51.231-18.129-19.539 29.318-51.232z" fill="rgba(0,27,30,1)" id="be5iMMQv16M17qZGsKx9v" data-selector="g[20]&gt;path[4]" /><path d="m246.676 455.072-18.129-19.539c-21.699-23.388-34.056-52.101-15.187-85.074l18.129 19.539c-18.869 32.973-6.512 61.686 15.187 85.074z" fill="rgba(0,27,30,1)" id="mYAIsopaMnEzBEnXW8QSn" data-selector="g[20]&gt;path[5]" /><path d="m228.547 435.533c2.745 2.958 5.639 5.831 8.638 8.617 29.79 27.679 62.438 49.324 99.154 64.909 35.875 15.228 75.639 24.668 120.381 28.278 39.103 3.156 79.524-3.655 100.78-40.799l18.129 19.539c-21.256 37.144-61.677 43.955-100.78 40.799-44.742-3.61-84.505-13.05-120.381-28.278-36.717-15.585-69.364-37.23-99.154-64.909-2.999-2.786-5.894-5.659-8.638-8.617-5.439-5.862-12.69-13.677-18.129-19.539z" fill="rgba(0,27,30,1)" id="XPC2PiR7ebZoL7yiUlPVp" data-selector="g[20]&gt;path[6]" /></g><path d="m104.58 355.829-78.368-36.261-4.21-2.53 78.368 36.261z" fill="rgba(0,233,242,1)" id="zaQ36FP37O8IVHPaUOY5b" data-selector="path[21]" /><path d="m91.89 184.556c-21.98-10.17-49.626.295-63.56 24.879l-20.313 35.838c-14.794 26.1-8.531 58.236 13.984 71.765l78.368 36.262c-22.516-13.529-28.777-45.665-13.984-71.765l20.313-35.838c13.934-24.583 41.579-35.049 63.56-24.879z" fill="url(#linearGradient_J_Rs4iKq)" id="zLhd9ITZvB5Y5CSsak0Y" data-selector="path[22]" /><path d="m178.469 225.468c-35.677 32.105-60.467 75.394-73.889 130.362l-4.211-2.53c-22.516-13.529-28.778-45.665-13.984-71.765l20.313-35.838c14.794-26.1 45.044-36.287 67.56-22.758l4.211 2.53z" fill="rgba(0,233,242,1)" id="NR7So_QW8Ekc-_nKrBau" data-selector="path[23]" /><g clip-path="url(#clipPath_zOu8isBh)" id="alE65Pc7Sri4_hzqR6-Z6" data-selector="g[24]"><path d="m428.812 290.233c37.78 16.036 75.217 34.998 112.688 56.385 32.07 18.3 45.07 56.552 23.818 93.688l-29.318 51.231c-21.256 37.144-61.677 43.955-100.78 40.799-44.742-3.61-84.505-13.05-120.381-28.278-36.717-15.585-69.364-37.23-99.154-64.909-26.712-24.809-45.081-56.547-23.825-93.691l29.318-51.231c21.252-37.136 63.91-50.447 100.787-40.796 36.087 9.438 71.616 21.848 106.847 36.802z" fill="url(#linearGradient_5zioHSkz)" id="ENfmOxTnR9PwSe9QZrG4h" data-selector="g[24]&gt;path[1]" /><path d="m446.941 309.772c37.78 16.036 75.217 34.998 112.688 56.385 32.07 18.3 45.07 56.552 23.818 93.688l-29.318 51.231c-21.256 37.144-61.677 43.955-100.78 40.799-44.742-3.61-84.505-13.05-120.381-28.278-36.717-15.585-69.364-37.23-99.154-64.909-26.712-24.809-45.081-56.547-23.825-93.691l29.318-51.231c21.252-37.136 63.91-50.447 100.787-40.796 36.087 9.438 71.616 21.848 106.847 36.802z" fill="none" id="AIpid1X7kncyxXbY-ZY" data-selector="g[24]&gt;path[2]" /><g fill="rgba(87,255,255,1)" id="seXwXbT4Y2VryNZrTeXRa" data-selector="g[24]&gt;g[3]"><path d="m336.104 342.32c-6.129-2.602-14.158.649-17.939 7.256-3.786 6.616-1.889 14.08 4.241 16.681 6.122 2.598 14.15-.652 17.936-7.268 3.781-6.607 1.884-14.071-4.238-16.669" fill="rgba(87,255,255,1)" id="k--q2cJFflf1JeBHsf7RY" data-selector="g[24]&gt;g[3]&gt;path[1]" /><path d="m326.924 377.15c-2.871 0-5.729-.544-8.426-1.688-5.353-2.272-9.322-6.556-11.176-12.063-2.022-6.005-1.233-12.854 2.164-18.791 6.314-11.031 19.723-16.078 30.526-11.493 5.349 2.271 9.315 6.553 11.169 12.057 2.022 6.005 1.235 12.852-2.16 18.784-4.738 8.281-13.47 13.193-22.097 13.194zm4.651-25.73c-1.274 0-3.485.946-4.73 3.123-.766 1.338-.667 2.324-.544 2.532 1.014.405 3.873-.449 5.362-3.052.763-1.334.664-2.318.542-2.526l-.008.028c-.163-.069-.375-.105-.621-.105z" fill="rgba(87,255,255,1)" id="xO1k-pyO3eRXzE8LVF4EQ" data-selector="g[24]&gt;g[3]&gt;path[2]" /><path d="m501.136 412.372c-6.129-2.602-14.158.648-17.939 7.256-3.786 6.616-1.889 14.08 4.241 16.681 6.122 2.598 14.15-.652 17.936-7.268 3.781-6.607 1.884-14.071-4.238-16.669" fill="rgba(87,255,255,1)" id="mNnXs6Qcjd1Ta5uOj6eTH" data-selector="g[24]&gt;g[3]&gt;path[3]" /><path d="m491.956 447.202c-2.871 0-5.729-.544-8.425-1.688-5.353-2.272-9.322-6.556-11.176-12.063-2.022-6.005-1.233-12.854 2.164-18.79 6.313-11.03 19.72-16.08 30.526-11.494 5.35 2.271 9.316 6.554 11.17 12.059 2.022 6.004 1.234 12.851-2.161 18.782-4.739 8.28-13.471 13.194-22.098 13.194zm4.652-25.729c-1.274 0-3.486.945-4.731 3.122-.766 1.339-.667 2.324-.544 2.532 1.012.405 3.874-.449 5.363-3.053.757-1.322.665-2.301.544-2.52l-.01.022c-.163-.069-.375-.104-.622-.104z" fill="rgba(87,255,255,1)" id="GhIGFGQXwuUnd_Ywe1Yr0" data-selector="g[24]&gt;g[3]&gt;path[4]" /><path d="m576.688 379.606c-5.438-5.862-12.69-13.677-18.129-19.539 18.88 20.349 23.693 50.648 6.76 80.239l-29.317 51.231c-21.256 37.144-61.677 43.955-100.78 40.799-44.742-3.61-84.505-13.05-120.381-28.278-36.717-15.585-69.364-37.23-99.154-64.909-2.999-2.786-5.894-5.659-8.638-8.617 5.438 5.862 12.689 13.677 18.128 19.539 2.745 2.958 5.639 5.831 8.639 8.617 29.79 27.679 62.438 49.324 99.154 64.909 35.875 15.228 75.639 24.667 120.381 28.278 39.103 3.156 79.523-3.655 100.779-40.799l29.318-51.231c16.934-29.591 12.12-59.89-6.76-80.239z" fill="rgba(87,255,255,1)" id="LMmyf9h5z6-txV9M3dyFR" data-selector="g[24]&gt;g[3]&gt;path[5]" /></g></g><path d="m340.012 333.115c-2.646-1.123-5.486-1.693-8.443-1.693-8.83 0-17.498 5.176-22.083 13.186-3.396 5.937-4.186 12.785-2.164 18.791 1.854 5.506 5.823 9.79 11.178 12.063 2.642 1.121 5.479 1.689 8.433 1.689 8.83 0 17.501-5.18 22.088-13.196 3.396-5.932 4.183-12.778 2.161-18.783-1.854-5.505-5.821-9.788-11.17-12.058z" fill="url(#linearGradient_kv7dkUAk)" id="fz7En7QQfpPIjMy2gzKdq" data-selector="path[25]" /><path d="m516.215 415.225c-1.854-5.505-5.821-9.788-11.17-12.058-2.646-1.123-5.486-1.693-8.443-1.693-8.831 0-17.499 5.176-22.084 13.186-3.396 5.937-4.186 12.786-2.163 18.791 1.854 5.506 5.823 9.791 11.177 12.063 2.642 1.121 5.479 1.69 8.433 1.69 8.831 0 17.502-5.18 22.09-13.196 3.395-5.932 4.182-12.778 2.16-18.783z" fill="url(#linearGradient_b_PXayBe)" id="zE8aipua95VhlzIVgINyz" data-selector="path[26]" /></g></g></svg>